<svg width="130" height="73" viewBox="0 0 130 73" fill="none" xmlns="http://www.w3.org/2000/svg">
<rect width="129.768" height="73" transform="translate(0.116211)" fill="white"/>
<path d="M71.0962 46.0693H62.889L63.0488 45.3866L65.0969 44.9944C65.31 44.946 65.494 44.8443 65.6489 44.6894C65.8039 44.5344 65.9055 44.3504 65.954 44.1374L67.3194 37.9783L63.9494 27.9554C63.8816 27.7617 63.7944 27.5826 63.6879 27.4179C63.5814 27.2436 63.441 27.1323 63.2666 27.0838L61.8286 26.7352L61.9738 26.0525H68.9463L68.8011 26.7352L66.3607 27.2146L68.9318 34.9134L69.5274 36.7582L76.8339 27.2727L74.3936 26.7352L74.5388 26.0525H80.1895L80.0442 26.7352L78.8966 27.0838C78.6739 27.1516 78.4705 27.2678 78.2865 27.4325C78.1025 27.5971 77.9379 27.7714 77.7927 27.9554L69.905 37.8621L68.5105 44.1374C68.4621 44.3601 68.4912 44.5538 68.5977 44.7184C68.7042 44.8734 68.8446 44.9654 69.0189 44.9944L71.256 45.3866L71.0962 46.0693ZM81.8867 46.4325C81.0152 46.4325 80.2356 46.2969 79.548 46.0258C78.8605 45.7546 78.2794 45.3672 77.8049 44.8637C77.3401 44.3601 76.9818 43.7549 76.73 43.0479C76.4879 42.3313 76.3668 41.5324 76.3668 40.6511C76.3668 39.8377 76.454 39.0533 76.6283 38.2979C76.8123 37.5329 77.0641 36.8163 77.3837 36.1481C77.7129 35.4702 78.1051 34.8552 78.5603 34.3033C79.0251 33.7416 79.5384 33.2622 80.1 32.8652C80.6714 32.4585 81.2863 32.1437 81.9448 31.921C82.6033 31.6983 83.2957 31.5869 84.0221 31.5869C85.0001 31.5869 85.8378 31.7418 86.5351 32.0517C87.2323 32.3616 87.7988 32.7829 88.2346 33.3155C88.6801 33.8481 89.0045 34.4727 89.2078 35.1893C89.4112 35.8963 89.5129 36.6468 89.5129 37.4409C89.5129 38.235 89.4209 39.0097 89.2369 39.765C89.0626 40.5107 88.8108 41.2176 88.4815 41.8858C88.162 42.554 87.7698 43.169 87.3049 43.7306C86.8498 44.2826 86.3414 44.762 85.7797 45.1687C85.218 45.5658 84.6079 45.8757 83.9494 46.0984C83.2909 46.3211 82.6033 46.4325 81.8867 46.4325ZM82.0465 45.4883C82.5694 45.4883 83.0488 45.3672 83.4846 45.1251C83.9301 44.8734 84.3319 44.5393 84.6902 44.1228C85.0486 43.6968 85.3633 43.2029 85.6344 42.6412C85.9153 42.0795 86.1477 41.4888 86.3317 40.869C86.5157 40.2396 86.6561 39.6004 86.7529 38.9516C86.8498 38.3028 86.8982 37.6733 86.8982 37.0632C86.8982 36.4434 86.8498 35.8575 86.7529 35.3056C86.6561 34.7536 86.4915 34.2742 86.2591 33.8675C86.0266 33.4511 85.7119 33.1267 85.3149 32.8942C84.9178 32.6521 84.4239 32.5311 83.8332 32.5311C83.2812 32.5311 82.7777 32.6667 82.3225 32.9378C81.8674 33.1993 81.4606 33.5528 81.1023 33.9982C80.744 34.434 80.4293 34.9424 80.1581 35.5234C79.8967 36.1045 79.6788 36.7097 79.5045 37.3392C79.3301 37.959 79.1994 38.5836 79.1123 39.2131C79.0251 39.8425 78.9815 40.4332 78.9815 40.9852C78.9815 41.5663 79.0251 42.1279 79.1123 42.6702C79.2091 43.2126 79.3689 43.6919 79.5916 44.1083C79.824 44.5247 80.1388 44.8588 80.5358 45.1106C80.9329 45.3624 81.4364 45.4883 82.0465 45.4883ZM95.3893 46.3308C94.8954 46.3308 94.4354 46.2679 94.0093 46.142C93.5832 46.0258 93.2153 45.8369 92.9054 45.5755C92.5955 45.314 92.3485 44.9847 92.1645 44.5877C91.9902 44.181 91.9031 43.6968 91.9031 43.1351C91.9031 42.9123 91.9176 42.6751 91.9466 42.4233C91.9757 42.1715 92.0193 41.9101 92.0774 41.6389L93.5736 34.6809C93.622 34.4292 93.5978 34.2113 93.5009 34.0273C93.4138 33.8433 93.2201 33.6932 92.9199 33.577L91.6997 33.0976V32.7054L96.6967 31.7031L94.663 40.8545C94.5855 41.1838 94.5226 41.513 94.4742 41.8423C94.4258 42.1715 94.4015 42.4669 94.4015 42.7284C94.4015 43.0479 94.45 43.3288 94.5468 43.5709C94.6436 43.813 94.7937 44.0212 94.9971 44.1955C95.2005 44.3601 95.4571 44.486 95.767 44.5732C96.0769 44.6603 96.4497 44.7039 96.8855 44.7039C97.1566 44.7039 97.4472 44.6797 97.7571 44.6313C98.0766 44.5732 98.3914 44.486 98.7012 44.3698C99.0111 44.2536 99.3162 44.1083 99.6164 43.934C99.9166 43.75 100.193 43.5321 100.444 43.2803L102.347 34.6809C102.386 34.4873 102.415 34.2645 102.434 34.0127C102.463 33.7513 102.483 33.4898 102.493 33.2283C102.502 32.9669 102.507 32.7248 102.507 32.502C102.517 32.2696 102.522 32.0856 102.522 31.95H105.354L103.335 41.116C103.277 41.3774 103.219 41.6437 103.161 41.9149C103.112 42.1764 103.064 42.4281 103.015 42.6702C102.977 42.9123 102.943 43.1302 102.914 43.3239C102.894 43.5176 102.885 43.6725 102.885 43.7888C102.885 43.8856 102.909 44.0018 102.957 44.1374C103.015 44.273 103.103 44.4037 103.219 44.5296C103.335 44.6555 103.475 44.762 103.64 44.8492C103.814 44.9363 104.018 44.9799 104.25 44.9799C104.308 44.9799 104.4 44.9702 104.526 44.9508C104.662 44.9218 104.807 44.8927 104.962 44.8637C105.117 44.8249 105.272 44.7814 105.427 44.7329C105.582 44.6845 105.717 44.6313 105.834 44.5732H106.051V45.2268C105.819 45.3721 105.562 45.5077 105.282 45.6336C105.01 45.7594 104.72 45.8708 104.41 45.9677C104.11 46.0548 103.8 46.1274 103.48 46.1855C103.161 46.2436 102.846 46.2727 102.536 46.2727C102.168 46.2727 101.853 46.2001 101.592 46.0548C101.34 45.9095 101.132 45.7256 100.967 45.5028C100.803 45.2801 100.672 45.0331 100.575 44.762C100.488 44.4812 100.425 44.21 100.386 43.9485C99.873 44.5393 99.3791 44.9944 98.9046 45.314C98.4301 45.6336 97.9798 45.8708 97.5537 46.0258C97.1373 46.171 96.7451 46.2582 96.3771 46.2872C96.0091 46.3163 95.6798 46.3308 95.3893 46.3308Z" fill="#212121"/>
<path d="M47.9129 44.8099L49.6561 44.7663H55.1905L56.6576 38.186L57.0789 36.4284L57.2241 35.7456L47.9129 44.8099ZM58.0521 52.4651H51.4573L51.6026 51.8114L53.0842 51.4192C53.2973 51.3611 53.4716 51.2643 53.6071 51.1287C53.7427 50.9931 53.8347 50.814 53.8831 50.5912L54.8709 46.2189H46.1843L46.4894 44.8244L59.374 32.2884H60.3327L57.5727 44.7663H60.8992L60.5796 46.2189H57.2532L56.2654 50.5912C56.217 50.814 56.2315 50.9931 56.309 51.1287C56.3961 51.2739 56.5317 51.3708 56.7157 51.4192L58.1974 51.8114L58.0521 52.4651Z" fill="#212121"/>
<rect x="38.9507" y="13.1582" width="6.84399" height="42.0416" rx="3.42199" transform="rotate(11.6466 38.9507 13.1582)" fill="#2F9DB8"/>
<rect x="26.1616" y="27.7725" width="6.84399" height="27.1205" rx="3.42199" transform="rotate(11.6466 26.1616 27.7725)" fill="#2F9DB8"/>
</svg>
